<?xml version="1.0" encoding="UTF-8" standalone="no"?>
<svg
   xmlns:dc="http://purl.org/dc/elements/1.1/"
   xmlns:cc="http://creativecommons.org/ns#"
   xmlns:rdf="http://www.w3.org/1999/02/22-rdf-syntax-ns#"
   xmlns:svg="http://www.w3.org/2000/svg"
   xmlns="http://www.w3.org/2000/svg"
   viewBox="0 0 370.16 49.373333"
   height="49.373333"
   width="370.16"
   xml:space="preserve"
   id="svg2"
   version="1.1"><metadata
     id="metadata8"><rdf:RDF><cc:Work
         rdf:about=""><dc:format>image/svg+xml</dc:format><dc:type
           rdf:resource="http://purl.org/dc/dcmitype/StillImage" /></cc:Work></rdf:RDF></metadata><defs
     id="defs6" /><g
     transform="matrix(1.3333333,0,0,-1.3333333,0,49.373333)"
     id="g10"><g
       transform="scale(0.1)"
       id="g12"><path
         id="path14"
         style="fill:#a7a5a6;fill-opacity:1;fill-rule:nonzero;stroke:none"
         d="m 1345.97,153.527 h -168.53 v 32.739 h 165.01 c 19.81,0 36.5,14.195 36.5,31.054 0,17.227 -15.92,29.715 -35.73,30.055 h -109.07 c -38.46,0 -71.83,23.293 -71.83,62.453 0,33.762 30.67,60.09 69.08,60.09 h 166.18 v -31.723 h -163.04 c -18.26,0 -31.47,-13.172 -31.47,-29.043 0,-15.886 13.6,-26.992 31.85,-26.992 l 108.71,-0.344 c 39.99,0 74.94,-24.656 74.94,-64.82 0,-34.797 -32.62,-63.469 -72.6,-63.469" /><path
         id="path16"
         style="fill:#a7a5a6;fill-opacity:1;fill-rule:nonzero;stroke:none"
         d="m 1644.12,154.211 -118.03,95.184 -43.08,-31.071 v -64.113 h -39.99 v 216.043 h 39.99 V 262.23 l 148.31,108.024 h 61.33 l -134.31,-97.559 147.89,-118.484 h -62.11" /><path
         id="path18"
         style="fill:#a7a5a6;fill-opacity:1;fill-rule:nonzero;stroke:none"
         d="m 1860.37,210.902 v -56.691 h -44.26 v 57.379 l -113.75,158.664 h 48.53 l 88.9,-123.883 85.03,123.883 h 48.54 L 1860.37,210.902" /><path
         id="path20"
         style="fill:#a7a5a6;fill-opacity:1;fill-rule:nonzero;stroke:none"
         d="m 1986.17,154.211 v 31.055 l 173.92,153.933 h -170.82 v 31.055 h 224.01 l -0.38,-32.399 -171.23,-152.589 h 171.98 v -31.055 h -227.48" /><path
         id="path22"
         style="fill:#a7a5a6;fill-opacity:1;fill-rule:nonzero;stroke:none"
         d="m 2294.43,154.211 c -37.68,0 -52.8,20.254 -52.8,47.934 V 322.32 c 0,27.344 15.54,47.934 52.8,47.934 h 178.19 c 0,-9.449 0,-31.055 0,-31.055 h -172.38 c -11.65,0 -16.7,-7.094 -16.7,-17.203 v -39.187 h 174.7 v -34.77 h -174.7 v -46.598 c 0,-11.464 6.23,-16.175 20.97,-16.175 h 168.11 v -31.055 h -178.19" /><path
         id="path24"
         style="fill:#a7a5a6;fill-opacity:1;fill-rule:nonzero;stroke:none"
         d="m 2723.05,320.637 c 0,15.176 -7,18.886 -20.58,18.886 h -156.49 v -80.339 c 0,0 133.94,0 156.87,0 13.58,0 20.2,6.093 20.2,19.246 z m 6.22,-166.426 -41.18,70.531 h -142.11 v -70.531 h -41.16 v 216.043 h 199.58 c 28.36,0 64.47,-8.094 64.47,-52.664 v -38.137 c 0,-19.265 -10.09,-41.199 -38.48,-49.961 l 45.82,-75.281 h -46.94" /><path
         id="path26"
         style="fill:#0f80cc;fill-opacity:1;fill-rule:nonzero;stroke:none"
         d="M 1234.09,77.7852 V 0.910156 h -21.73 V 77.7852 h -48.91 v 13.7382 h 119.92 V 77.7852 h -49.28" /><path
         id="path28"
         style="fill:#0f80cc;fill-opacity:1;fill-rule:nonzero;stroke:none"
         d="m 1323.43,0.910156 c -18.68,0 -26.18,8.476564 -26.18,20.105444 V 71.418 c 0,11.4531 7.68,20.1054 26.18,20.1054 h 88.37 c 0,-3.9726 0,-13.0351 0,-13.0351 h -85.48 c -5.78,0 -8.29,-2.9805 -8.29,-7.2383 V 54.8555 h 86.64 V 40.2656 h -86.64 V 20.7031 c 0,-4.7929 3.08,-6.7578 10.4,-6.7578 h 83.37 V 0.910156 h -88.37" /><path
         id="path30"
         style="fill:#0f80cc;fill-opacity:1;fill-rule:nonzero;stroke:none"
         d="m 1467.81,0.910156 c -24.07,0 -36.38,7.351564 -36.38,24.050744 v 42.4922 c 0,16.7071 12.31,24.0703 36.38,24.0703 h 77.98 V 78.0586 h -83.93 c -7.33,0 -9.65,-2.6953 -9.65,-9.0625 V 23.2813 c 0,-6.3672 2.32,-9.0508 9.65,-9.0508 h 83.93 V 0.910156 h -77.98" /><path
         id="path32"
         style="fill:#0f80cc;fill-opacity:1;fill-rule:nonzero;stroke:none"
         d="M 1683.65,0.910156 V 40.6953 h -93.78 V 0.910156 h -20.44 V 91.5234 h 20.44 V 55.1172 h 93.78 v 36.4062 h 20.62 V 0.910156 h -20.62" /><path
         id="path34"
         style="fill:#0f80cc;fill-opacity:1;fill-rule:nonzero;stroke:none"
         d="M 1839.01,0.910156 V 68.9961 c 0,6.7969 -3.1,9.207 -12.55,9.207 L 1748.5,78.0586 V 0.910156 h -20.39 V 91.5234 h 101.45 c 23.89,0 30.23,-8.3476 30.23,-24.207 V 0.910156 h -20.78" /><path
         id="path36"
         style="fill:#0f80cc;fill-opacity:1;fill-rule:nonzero;stroke:none"
         d="m 1998.96,72.6875 c 0,3.8164 -3.04,5.8008 -9.44,5.8008 h -79.3 c -6.14,0 -9.26,-1.8477 -9.26,-5.8008 V 19.7266 c 0,-3.8164 3.12,-5.7813 9.26,-5.7813 h 79.3 c 6.4,0 9.44,1.8164 9.44,5.7813 z m 13.5,-65.53906 c -5.22,-4.10938 -13.68,-6.238284 -24.27,-6.238284 h -76.43 c -10.42,0 -18.69,1.980474 -23.86,6.238284 -5.2,3.94536 -7.33,10.75386 -7.33,20.36326 v 37.2344 c 0,9.3359 1.75,16.4258 6.95,20.6562 5.17,4.129 13.65,6.1211 24.24,6.1211 h 76.43 c 10.4,0 18.5,-1.8554 23.69,-6.1211 5.19,-3.9375 7.51,-11.0078 7.51,-20.6562 V 27.5117 c 0,-9.3359 -1.77,-16.125 -6.93,-20.36326" /><path
         id="path38"
         style="fill:#0f80cc;fill-opacity:1;fill-rule:nonzero;stroke:none"
         d="M 2040.54,0.773438 V 91.5234 h 20.61 V 13.9453 h 86.08 V 0.910156 L 2040.54,0.773438" /><path
         id="path40"
         style="fill:#0f80cc;fill-opacity:1;fill-rule:nonzero;stroke:none"
         d="m 2280.03,72.6875 c 0,3.8164 -3.06,5.8008 -9.43,5.8008 h -79.31 c -6.19,0 -9.29,-1.8477 -9.29,-5.8008 V 19.7266 c 0,-3.8164 3.1,-5.7813 9.29,-5.7813 h 79.31 c 6.37,0 9.43,1.8164 9.43,5.7813 z m 13.49,-65.53906 c -5.21,-4.10938 -13.69,-6.238284 -24.24,-6.238284 h -76.45 c -10.41,0 -18.68,1.980474 -23.88,6.238284 -5.18,3.94536 -7.32,10.75386 -7.32,20.36326 v 37.2344 c 0,9.3359 1.76,16.4258 6.91,20.6562 5.24,4.129 13.69,6.1211 24.29,6.1211 h 76.45 c 10.38,0 18.45,-1.8554 23.66,-6.1211 5.21,-3.9375 7.5,-11.0078 7.5,-20.6562 V 27.5117 c 0,-9.3359 -1.72,-16.125 -6.92,-20.36326" /><path
         id="path42"
         style="fill:#0f80cc;fill-opacity:1;fill-rule:nonzero;stroke:none"
         d="m 2346.27,0.910156 c -17.52,0 -26.2,7.781254 -26.2,20.105444 V 71.418 c 0,11.1523 6.95,20.1054 26.2,20.1054 h 89.51 V 78.4883 h -86.84 c -4.97,0 -8.62,-2.9805 -8.62,-6.8086 V 20.7031 c 0,-4.7929 3.06,-6.7578 10.35,-6.7578 h 84.73 v 26.75 h -49.1 l -0.18,14.5703 68.55,-0.1484 V 0.910156 h -108.4" /><path
         id="path44"
         style="fill:#0f80cc;fill-opacity:1;fill-rule:nonzero;stroke:none"
         d="M 2476.39,0.773438 V 91.5234 H 2497 V 0.910156 l -20.61,-0.136718" /><path
         id="path46"
         style="fill:#0f80cc;fill-opacity:1;fill-rule:nonzero;stroke:none"
         d="m 2544.36,0.910156 c -18.68,0 -26.15,8.476564 -26.15,20.105444 V 71.418 c 0,11.4531 7.67,20.1054 26.15,20.1054 h 88.37 c 0,-3.9726 0,-13.0351 0,-13.0351 h -85.49 c -5.79,0 -8.28,-2.9805 -8.28,-7.2383 V 54.8555 h 86.66 V 40.2656 h -86.66 V 20.7031 c 0,-4.7929 3.1,-6.7578 10.39,-6.7578 h 83.38 V 0.910156 h -88.37" /><path
         id="path48"
         style="fill:#0f80cc;fill-opacity:1;fill-rule:nonzero;stroke:none"
         d="m 2739.57,0.625 h -83.55 v 13.7305 h 81.81 c 9.83,0 18.1,5.9687 18.1,13.0273 0,7.2266 -7.9,12.461 -17.71,12.5977 h -54.11 c -19.04,0 -35.62,9.7656 -35.62,26.1914 0,14.1406 15.22,25.1875 34.3,25.1875 h 82.39 V 78.0586 h -80.85 c -9.05,0 -15.6,-5.5078 -15.6,-12.1797 0,-6.6601 6.72,-11.3086 15.8,-11.3086 l 53.91,-0.1562 c 19.8,0 37.16,-10.3321 37.16,-27.1758 0,-14.5703 -16.18,-26.6133 -36.03,-26.6133" /><path
         id="path50"
         style="fill:#a7a5a6;fill-opacity:1;fill-rule:nonzero;stroke:none"
         d="m 248.645,323.535 c 0,25.375 -20.657,46.039 -46.055,46.039 H 46.0391 C 20.6563,369.574 0,348.91 0,323.535 V 245.207 C 0,219.789 20.6563,199.152 46.0391,199.152 H 202.59 c 25.398,0 46.055,20.637 46.055,46.055 z m -18.262,-78.328 c 0,-15.344 -12.453,-27.812 -27.793,-27.812 H 46.0391 c -15.3086,0 -27.7969,12.468 -27.7969,27.812 v 78.328 c 0,15.328 12.4883,27.817 27.7969,27.817 H 202.59 c 15.34,0 27.793,-12.489 27.793,-27.817 v -78.328" /><path
         id="path52"
         style="fill:#a7a5a6;fill-opacity:1;fill-rule:nonzero;stroke:none"
         d="m 525.645,323.535 c 0,25.375 -20.665,46.039 -46.043,46.039 H 323.051 c -25.391,0 -46.035,-20.664 -46.035,-46.039 v -78.328 c 0,-25.418 20.644,-46.055 46.035,-46.055 h 156.551 c 25.378,0 46.043,20.637 46.043,46.055 z m -18.243,-78.328 c 0,-15.344 -12.476,-27.812 -27.8,-27.812 H 323.051 c -15.34,0 -27.793,12.468 -27.793,27.812 v 78.328 c 0,15.328 12.453,27.817 27.793,27.817 h 156.551 c 15.324,0 27.8,-12.489 27.8,-27.817 v -78.328" /><path
         id="path54"
         style="fill:#a7a5a6;fill-opacity:1;fill-rule:nonzero;stroke:none"
         d="m 802.75,323.535 c 0,25.375 -20.664,46.039 -46.039,46.039 H 600.156 c -25.39,0 -46.043,-20.664 -46.043,-46.039 v -78.328 c 0,-25.418 20.653,-46.055 46.043,-46.055 h 156.555 c 25.375,0 46.039,20.637 46.039,46.055 z m -18.23,-78.328 c 0,-15.344 -12.469,-27.812 -27.809,-27.812 H 600.156 c -15.34,0 -27.793,12.468 -27.793,27.812 v 78.328 c 0,15.328 12.453,27.817 27.793,27.817 h 156.555 c 15.34,0 27.809,-12.489 27.809,-27.817 v -78.328" /><path
         id="path56"
         style="fill:#0f80cc;fill-opacity:1;fill-rule:nonzero;stroke:none"
         d="m 1079.67,323.535 c 0,25.375 -20.66,46.039 -46.03,46.039 H 877.086 c -25.398,0 -46.063,-20.664 -46.063,-46.039 v -78.328 c 0,-25.418 20.665,-46.055 46.063,-46.055 h 156.554 c 25.37,0 46.03,20.637 46.03,46.055 v 78.328" /><path
         id="path58"
         style="fill:#a7a5a6;fill-opacity:1;fill-rule:nonzero;stroke:none"
         d="m 248.645,124.367 c 0,25.41 -20.657,46.055 -46.055,46.055 H 46.0391 C 20.6563,170.422 0,149.777 0,124.367 V 46.0352 C 0,20.6641 20.6563,0 46.0391,0 H 202.59 c 25.398,0 46.055,20.6641 46.055,46.0352 z M 230.383,46.0352 c 0,-15.3204 -12.453,-27.8008 -27.793,-27.8008 H 46.0391 c -15.3086,0 -27.7969,12.4804 -27.7969,27.8008 v 78.3318 c 0,15.36 12.4883,27.813 27.7969,27.813 H 202.59 c 15.34,0 27.793,-12.453 27.793,-27.813 V 46.0352" /><path
         id="path60"
         style="fill:#0f80cc;fill-opacity:1;fill-rule:nonzero;stroke:none"
         d="m 525.645,124.367 c 0,25.41 -20.665,46.055 -46.043,46.055 H 323.051 c -25.391,0 -46.035,-20.645 -46.035,-46.055 V 46.0352 C 277.016,20.6641 297.66,0 323.051,0 h 156.551 c 25.378,0 46.043,20.6641 46.043,46.0352 v 78.3318" /><path
         id="path62"
         style="fill:#0f80cc;fill-opacity:1;fill-rule:nonzero;stroke:none"
         d="m 802.75,124.367 c 0,25.41 -20.664,46.055 -46.039,46.055 H 600.156 c -25.39,0 -46.043,-20.645 -46.043,-46.055 V 46.0352 C 554.113,20.6641 574.766,0 600.156,0 h 156.555 c 25.375,0 46.039,20.6641 46.039,46.0352 v 78.3318" /><path
         id="path64"
         style="fill:#0f80cc;fill-opacity:1;fill-rule:nonzero;stroke:none"
         d="m 1079.67,124.367 c 0,25.41 -20.66,46.055 -46.03,46.055 H 877.086 c -25.398,0 -46.063,-20.645 -46.063,-46.055 V 46.0352 C 831.023,20.6641 851.688,0 877.086,0 h 156.554 c 25.37,0 46.03,20.6641 46.03,46.0352 v 78.3318" /></g></g></svg>